HIERARCHY
ROOT joint_Root
{
	OFFSET 0.0 0.0 0.0
	CHANNELS 6 Xposition Yposition Zposition Zrotation Xrotation Yrotation 
	JOINT Hips
	{
		OFFSET -17.1583 93.1646 452.98
		CHANNELS 6 Xposition Yposition Zposition Zrotation Xrotation Yrotation 
		JOINT Spine
		{
			OFFSET 15.7357 0.0 0.0
			CHANNELS 6 Xposition Yposition Zposition Zrotation Xrotation Yrotation 
			JOINT Chest
			{
				OFFSET 8.98455 -0.406207 0.0
				CHANNELS 6 Xposition Yposition Zposition Zrotation Xrotation Yrotation 
				JOINT Neck
				{
					OFFSET 16.3773 0.0 0.0
					CHANNELS 6 Xposition Yposition Zposition Zrotation Xrotation Yrotation 
					JOINT Head
					{
						OFFSET 6.45672 0.0 0.0
						CHANNELS 6 Xposition Yposition Zposition Zrotation Xrotation Yrotation 
						End Site
						{
							OFFSET 0.0 0.0 0.0
						}
					}
				}
				JOINT Shoulder_L
				{
					OFFSET 12.9942 -0.242716 4.98039
					CHANNELS 6 Xposition Yposition Zposition Zrotation Xrotation Yrotation 
					JOINT UpperArm_L
					{
						OFFSET 5.34809 0.0 0.0
						CHANNELS 6 Xposition Yposition Zposition Zrotation Xrotation Yrotation 
						JOINT LowerArm_L
						{
							OFFSET 24.3286 1.87007e-05 0.0
							CHANNELS 6 Xposition Yposition Zposition Zrotation Xrotation Yrotation 
							JOINT Hand_L
							{
								OFFSET 22.2916 0.0 0.0
								CHANNELS 6 Xposition Yposition Zposition Zrotation Xrotation Yrotation 
								End Site
								{
									OFFSET 0.0 0.0 0.0
								}
							}
						}
					}
				}
				JOINT Shoulder_R
				{
					OFFSET 12.9945 -0.242716 -4.98039
					CHANNELS 6 Xposition Yposition Zposition Zrotation Xrotation Yrotation 
					JOINT UpperArm_R
					{
						OFFSET -5.34813 0.0 0.0
						CHANNELS 6 Xposition Yposition Zposition Zrotation Xrotation Yrotation 
						JOINT LowerArm_R
						{
							OFFSET -24.3289 0.000322201 0.0
							CHANNELS 6 Xposition Yposition Zposition Zrotation Xrotation Yrotation 
							JOINT Hand_R
							{
								OFFSET -22.2915 -0.000108084 0.0
								CHANNELS 6 Xposition Yposition Zposition Zrotation Xrotation Yrotation 
								End Site
								{
									OFFSET 0.0 0.0 0.0
								}
							}
						}
					}
				}
			}
		}
		JOINT UpperLeg_L
		{
			OFFSET -2.19248 -6.46944 0.0
			CHANNELS 6 Xposition Yposition Zposition Zrotation Xrotation Yrotation 
			JOINT LowerLeg_L
			{
				OFFSET 39.0811 0.0 -1.23785e-05
				CHANNELS 6 Xposition Yposition Zposition Zrotation Xrotation Yrotation 
				JOINT Foot_L
				{
					OFFSET 40.9854 0.0 -1.26872e-05
					CHANNELS 6 Xposition Yposition Zposition Zrotation Xrotation Yrotation 
					JOINT Toes_L
					{
						OFFSET 11.7543 0.0 0.0
						CHANNELS 6 Xposition Yposition Zposition Zrotation Xrotation Yrotation 
						End Site
						{
							OFFSET 0.0 0.0 0.0
						}
					}
				}
			}
		}
		JOINT UpperLeg_R
		{
			OFFSET -2.19251 6.46944 0.0
			CHANNELS 6 Xposition Yposition Zposition Zrotation Xrotation Yrotation 
			JOINT LowerLeg_R
			{
				OFFSET -39.0811 -0.00228153 -0.0401928
				CHANNELS 6 Xposition Yposition Zposition Zrotation Xrotation Yrotation 
				JOINT Foot_R
				{
					OFFSET -40.9854 0.0 0.0
					CHANNELS 6 Xposition Yposition Zposition Zrotation Xrotation Yrotation 
					JOINT Toes_R
					{
						OFFSET -11.7543 0.0 0.0
						CHANNELS 6 Xposition Yposition Zposition Zrotation Xrotation Yrotation 
						End Site
						{
							OFFSET 0.0 0.0 0.0
						}
					}
				}
			}
		}
	}
}
MOTION
Frames:	7
Frame Time:	0.0333333
0.000000 0.000000 0.000000 0.000000 0.000000 -0.000000 194.885000 91.991200 -87.619000 88.880500 3.614990 0.026187 15.735700 0.000005 -0.000001 112.190000 86.251000 -111.024000 8.984550 -0.406207 -0.000000 -0.850102 2.743640 2.352100 16.377300 -0.000001 -0.000001 5.567230 -0.063282 -1.888550 6.456720 -0.000001 -0.000000 -5.157200 -3.001990 -1.587240 12.994200 -0.242716 4.980390 -93.325800 8.385850 -68.274600 5.348090 -0.000007 -0.000001 -50.770800 -20.830700 11.691600 24.328600 0.000019 0.000005 11.063300 22.985000 -26.598200 22.291600 -0.000001 0.000005 52.209300 4.504250 16.529700 12.994500 -0.242716 -4.980390 88.322400 4.443840 -69.293800 -5.348130 -0.000001 -0.000004 -68.966500 20.143300 -23.293500 -24.328900 0.000322 -0.000009 0.750388 0.860856 -41.122100 -22.291500 -0.000108 -0.000004 43.979500 5.542030 -8.334940 -2.192480 -6.469440 -0.000000 179.060000 -1.714270 -22.321100 39.081100 -0.000007 -0.000012 0.004713 -0.027679 9.664870 40.985400 -0.000006 -0.000013 -4.738290 4.664780 -59.282800 11.754300 -0.000000 0.000003 0.002382 0.101091 -12.477300 -2.192510 6.469440 -0.000001 -177.026000 6.821870 -171.046000 -39.081100 -0.002282 -0.040193 -0.004942 0.028674 16.088800 -40.985400 0.000008 0.000006 -0.359913 14.243900 -70.345100 -11.754300 -0.000006 -0.000006 0.001788 0.128334 -11.369100
0.000000 0.000000 0.000000 0.000000 0.000000 -0.000000 195.072000 91.191100 -84.628900 88.468800 2.957940 -0.644021 15.735700 0.000005 -0.000001 113.387000 86.314600 -112.207000 8.984550 -0.406207 -0.000000 -1.028910 2.834600 2.386060 16.377300 -0.000001 -0.000001 4.896980 0.149101 -1.717290 6.456720 -0.000001 -0.000000 -5.484810 -2.828140 -1.100360 12.994200 -0.242716 4.980390 -93.507000 8.897560 -68.384800 5.348090 -0.000007 -0.000001 -51.599800 -20.605700 10.848900 24.328600 0.000019 0.000005 10.540900 22.623300 -25.814300 22.291600 -0.000001 0.000005 52.066400 4.507080 16.482800 12.994500 -0.242716 -4.980390 88.174300 4.975600 -69.820300 -5.348130 -0.000001 -0.000004 -69.255500 20.010900 -22.443600 -24.328900 0.000322 -0.000009 1.256880 1.419970 -41.548300 -22.291500 -0.000108 -0.000004 44.091600 5.546740 -8.554320 -2.192480 -6.469440 -0.000000 178.660000 -3.101140 -23.089800 39.081100 -0.000007 -0.000012 0.000122 -0.001407 4.975480 40.985400 -0.000006 -0.000013 -5.996650 8.681210 -61.130900 11.754300 -0.000000 0.000003 0.002348 0.103685 -12.372100 -2.192510 6.469440 -0.000001 -177.183000 7.526770 -170.519000 -39.081100 -0.002282 -0.040193 -0.012254 0.048628 17.764600 -40.985400 0.000008 0.000006 0.047471 15.600500 -71.416300 -11.754300 -0.000006 -0.000006 0.002462 0.092535 -12.820600
0.000000 0.000000 0.000000 0.000000 0.000000 -0.000000 195.380000 90.559200 -81.213200 88.302700 2.258040 -1.212620 15.735700 0.000005 -0.000001 114.855000 86.321700 -113.762000 8.984550 -0.406207 -0.000000 -1.118620 3.006830 2.214190 16.377300 -0.000001 -0.000001 4.135560 0.220124 -1.437500 6.456720 -0.000001 -0.000000 -5.962770 -2.724450 -0.678576 12.994200 -0.242716 4.980390 -93.701400 9.454030 -68.503100 5.348090 -0.000007 -0.000001 -53.577400 -19.433900 8.809260 24.328600 0.000019 0.000005 9.077320 22.143200 -22.970000 22.291600 -0.000001 0.000005 51.794400 4.499570 16.607200 12.994500 -0.242716 -4.980390 88.136400 5.238770 -70.386200 -5.348130 -0.000001 -0.000004 -70.037500 19.836700 -20.634100 -24.328900 0.000322 -0.000009 1.926370 2.267470 -40.385800 -22.291500 -0.000108 -0.000004 44.288800 5.552630 -8.831490 -2.192480 -6.469440 -0.000000 178.240000 -3.602570 -23.777700 39.081100 -0.000007 -0.000012 -0.001026 0.014694 3.991910 40.985400 -0.000006 -0.000013 -5.980190 10.211800 -62.461600 11.754300 -0.000000 0.000003 0.002352 0.103379 -12.384500 -2.192510 6.469440 -0.000001 -177.618000 7.710870 -170.234000 -39.081100 -0.002282 -0.040193 -0.017130 0.055495 20.229900 -40.985400 0.000008 0.000006 0.333142 16.488900 -71.258900 -11.754300 -0.000006 -0.000006 0.000864 0.016082 -15.921000
0.000000 0.000000 0.000000 0.000000 0.000000 -0.000000 195.773000 90.196400 -77.372100 88.835100 2.031550 -2.228230 15.735700 0.000005 -0.000001 115.600000 86.549100 -114.873000 8.984550 -0.406207 -0.000000 -1.560450 2.922330 1.494040 16.377300 -0.000001 -0.000001 3.552100 0.137347 -1.009960 6.456720 -0.000001 -0.000000 -6.729260 -2.770000 -0.016634 12.994200 -0.242716 4.980390 -93.789700 9.840460 -68.815000 5.348090 -0.000007 -0.000001 -56.595200 -17.818200 6.391200 24.328600 0.000019 0.000005 7.375870 21.400900 -19.532300 22.291600 -0.000001 0.000005 51.504300 4.502110 16.565100 12.994500 -0.242716 -4.980390 88.150800 5.327250 -70.825300 -5.348130 -0.000001 -0.000004 -70.879400 19.948300 -17.957700 -24.328900 0.000322 -0.000009 1.959640 2.532460 -37.770900 -22.291500 -0.000108 -0.000004 43.258500 5.555530 -8.972020 -2.192480 -6.469440 -0.000000 177.855000 -2.733400 -24.682600 39.081100 -0.000007 -0.000012 -0.000947 0.009091 5.943480 40.985400 -0.000006 -0.000013 -8.673310 10.552500 -57.889500 11.754300 -0.000000 0.000003 0.002461 0.092459 -12.827200 -2.192510 6.469440 -0.000001 -178.513000 7.572250 -170.689000 -39.081100 -0.002282 -0.040193 -0.013699 0.039936 23.076500 -40.985400 0.000008 0.000006 0.385148 16.645000 -69.159900 -11.754300 -0.000006 -0.000006 -0.011486 -0.114427 -21.237100
0.000000 0.000000 0.000000 0.000000 0.000000 -0.000000 196.265000 90.086200 -73.149400 90.041000 2.250740 -3.475020 15.735700 0.000005 -0.000001 114.909000 87.056800 -114.818000 8.984550 -0.406207 -0.000000 -2.430160 2.470290 0.235836 16.377300 -0.000001 -0.000001 3.205060 -0.059935 -0.517240 6.456720 -0.000001 -0.000000 -7.212780 -2.964860 1.053950 12.994200 -0.242716 4.980390 -93.821300 10.105100 -69.158700 5.348090 -0.000007 -0.000001 -59.962300 -15.500100 4.258610 24.328600 0.000019 0.000005 6.328830 21.678300 -16.712000 22.291600 -0.000001 0.000005 51.303700 4.522090 16.233600 12.994500 -0.242716 -4.980390 88.057800 5.673050 -71.066000 -5.348130 -0.000001 -0.000004 -71.650800 19.858500 -14.465600 -24.328900 0.000322 -0.000009 2.144840 3.247160 -33.494000 -22.291500 -0.000108 -0.000004 41.398300 5.571410 -9.762300 -2.192480 -6.469440 -0.000000 176.463000 0.297755 -28.902000 39.081100 -0.000007 -0.000012 -0.043354 0.159007 15.251200 40.985400 -0.000006 -0.000013 -2.096000 9.218040 -56.724200 11.754300 -0.000000 0.000003 0.002389 0.100486 -12.501800 -2.192510 6.469440 -0.000001 -179.834000 7.155990 -171.936000 -39.081100 -0.002282 -0.040193 -0.004175 0.015015 26.495500 -40.985400 0.000008 0.000006 -0.471036 16.186100 -64.587600 -11.754300 -0.000006 -0.000006 -0.046287 -0.284261 -28.269600
0.000000 0.000000 0.000000 0.000000 0.000000 -0.000000 196.838000 90.173100 -68.510800 91.576200 2.732880 -3.799090 15.735700 0.000005 -0.000001 110.678000 87.390300 -111.351000 8.984550 -0.406207 -0.000000 -2.871930 1.904860 -1.299860 16.377300 -0.000001 -0.000001 2.994060 -0.389716 -0.143028 6.456720 -0.000001 -0.000000 -7.272370 -3.333860 2.383970 12.994200 -0.242716 4.980390 -93.803000 10.265600 -69.544800 5.348090 -0.000007 -0.000001 -63.284300 -11.619300 2.335690 24.328600 0.000019 0.000005 5.623910 21.086100 -15.307300 22.291600 -0.000001 0.000005 50.843900 4.521070 16.250200 12.994500 -0.242716 -4.980390 88.043000 5.737130 -71.129100 -5.348130 -0.000001 -0.000004 -73.282100 18.577100 -10.476500 -24.328900 0.000322 -0.000009 2.405790 4.645090 -27.431500 -22.291500 -0.000108 -0.000004 40.177600 5.578450 -10.129100 -2.192480 -6.469440 -0.000000 175.637000 5.108920 -29.372600 39.081100 -0.000007 -0.000012 -0.028202 0.075150 20.569400 40.985400 -0.000006 -0.000013 0.776250 5.566600 -56.954000 11.754300 -0.000000 0.000003 0.001833 0.126825 -11.433800 -2.192510 6.469440 -0.000001 178.245000 7.042500 -173.162000 -39.081100 -0.002282 -0.040193 0.009581 -0.010501 30.885200 -40.985400 0.000008 0.000006 -2.490400 16.007600 -56.660100 -11.754300 -0.000006 -0.000006 -0.103514 -0.453192 -35.505300
0.000000 0.000000 0.000000 0.000000 0.000000 -0.000000 197.413000 90.344000 -63.682500 92.235500 3.078980 -2.651240 15.735700 0.000005 -0.000001 104.513000 87.216000 -105.605000 8.984550 -0.406207 -0.000000 -2.360920 1.491370 -2.154180 16.377300 -0.000001 -0.000001 2.912480 -0.706422 -0.041346 6.456720 -0.000001 -0.000000 -7.220880 -3.679400 3.543630 12.994200 -0.242716 4.980390 -93.766500 10.223100 -69.648900 5.348090 -0.000007 -0.000001 -66.591300 -7.192500 0.358958 24.328600 0.000019 0.000005 5.867290 20.944000 -16.038500 22.291600 -0.000001 0.000005 50.029100 4.534910 16.019000 12.994500 -0.242716 -4.980390 88.210200 5.246170 -71.131900 -5.348130 -0.000001 -0.000004 -75.007000 16.529300 -6.804460 -24.328900 0.000322 -0.000009 1.692820 4.599370 -20.242800 -22.291500 -0.000108 -0.000004 37.767700 5.576870 -10.037000 -2.192480 -6.469440 -0.000000 174.678000 7.495800 -27.306100 39.081100 -0.000007 -0.000012 0.023526 -0.051073 24.732500 40.985400 -0.000006 -0.000013 2.635380 4.108000 -58.511700 11.754300 -0.000000 0.000003 0.001167 0.144894 -10.700700 -2.192510 6.469440 -0.000001 176.506000 6.932210 -174.591000 -39.081100 -0.002282 -0.040193 0.042267 -0.051953 36.881400 -40.985400 0.000008 0.000006 -6.930070 16.723500 -45.496400 -11.754300 -0.000006 -0.000006 -0.091162 -0.422080 -34.148100
